<?xml version="1.0" encoding="UTF-8" standalone="no"?><svg xmlns="http://www.w3.org/2000/svg" xmlns:xlink="http://www.w3.org/1999/xlink" contentScriptType="application/ecmascript" contentStyleType="text/css" height="349px" preserveAspectRatio="none" style="width:675px;height:349px;background:#FFFFFF;" version="1.1" viewBox="0 0 675 349" width="675px" zoomAndPan="magnify"><defs><filter height="300%" id="fz7zq1lxgmji" width="300%" x="-1" y="-1"><feGaussianBlur result="blurOut" stdDeviation="2.0"/><feColorMatrix in="blurOut" result="blurOut2" type="matrix" values="0 0 0 0 0 0 0 0 0 0 0 0 0 0 0 0 0 0 .4 0"/><feOffset dx="4.0" dy="4.0" in="blurOut2" result="blurOut3"/><feBlend in="SourceGraphic" in2="blurOut3" mode="normal"/></filter></defs><g><rect fill="#DDDDDD" height="337.5999" style="stroke:#A80036;stroke-width:1.0;" width="261" x="330" y="6"/><text fill="#000000" font-family="sans-serif" font-size="13" font-weight="bold" lengthAdjust="spacing" textLength="79" x="421" y="18.077">Item Domain</text><line style="stroke:#A80036;stroke-width:1.0;stroke-dasharray:5.0,5.0;" x1="23" x2="23" y1="88.7999" y2="256.8"/><line style="stroke:#A80036;stroke-width:1.0;stroke-dasharray:5.0,5.0;" x1="226" x2="226" y1="88.7999" y2="256.8"/><line style="stroke:#A80036;stroke-width:1.0;stroke-dasharray:5.0,5.0;" x1="402" x2="402" y1="88.7999" y2="256.8"/><line style="stroke:#A80036;stroke-width:1.0;stroke-dasharray:5.0,5.0;" x1="533" x2="533" y1="88.7999" y2="256.8"/><line style="stroke:#A80036;stroke-width:1.0;stroke-dasharray:5.0,5.0;" x1="631" x2="631" y1="88.7999" y2="256.8"/><text fill="#000000" font-family="sans-serif" font-size="14" lengthAdjust="spacing" textLength="30" x="5" y="85.0059">User</text><ellipse cx="23" cy="15" fill="#FEFECE" filter="url(#fz7zq1lxgmji)" rx="8" ry="8" style="stroke:#A80036;stroke-width:2.0;"/><path d="M23,23 L23,50 M10,31 L36,31 M23,50 L10,65 M23,50 L36,65 " fill="none" filter="url(#fz7zq1lxgmji)" style="stroke:#A80036;stroke-width:2.0;"/><text fill="#000000" font-family="sans-serif" font-size="14" lengthAdjust="spacing" textLength="30" x="5" y="268.8059">User</text><ellipse cx="23" cy="282.5999" fill="#FEFECE" filter="url(#fz7zq1lxgmji)" rx="8" ry="8" style="stroke:#A80036;stroke-width:2.0;"/><path d="M23,290.5999 L23,317.5999 M10,298.5999 L36,298.5999 M23,317.5999 L10,332.5999 M23,317.5999 L36,332.5999 " fill="none" filter="url(#fz7zq1lxgmji)" style="stroke:#A80036;stroke-width:2.0;"/><rect fill="#FEFECE" filter="url(#fz7zq1lxgmji)" height="30.7999" style="stroke:#A80036;stroke-width:1.5;" width="50" x="199" y="53"/><text fill="#000000" font-family="sans-serif" font-size="14" lengthAdjust="spacing" textLength="36" x="206" y="73.0059">Client</text><rect fill="#FEFECE" filter="url(#fz7zq1lxgmji)" height="30.7999" style="stroke:#A80036;stroke-width:1.5;" width="50" x="199" y="255.8"/><text fill="#000000" font-family="sans-serif" font-size="14" lengthAdjust="spacing" textLength="36" x="206" y="275.8059">Client</text><rect fill="#FEFECE" filter="url(#fz7zq1lxgmji)" height="30.7999" style="stroke:#A80036;stroke-width:1.5;" width="132" x="334" y="53"/><text fill="#000000" font-family="sans-serif" font-size="14" lengthAdjust="spacing" textLength="118" x="341" y="73.0059">NewItemController</text><rect fill="#FEFECE" filter="url(#fz7zq1lxgmji)" height="30.7999" style="stroke:#A80036;stroke-width:1.5;" width="132" x="334" y="255.8"/><text fill="#000000" font-family="sans-serif" font-size="14" lengthAdjust="spacing" textLength="118" x="341" y="275.8059">NewItemController</text><rect fill="#FEFECE" filter="url(#fz7zq1lxgmji)" height="30.7999" style="stroke:#A80036;stroke-width:1.5;" width="103" x="480" y="53"/><text fill="#000000" font-family="sans-serif" font-size="14" lengthAdjust="spacing" textLength="89" x="487" y="73.0059">ItemDatabase</text><rect fill="#FEFECE" filter="url(#fz7zq1lxgmji)" height="30.7999" style="stroke:#A80036;stroke-width:1.5;" width="103" x="480" y="255.8"/><text fill="#000000" font-family="sans-serif" font-size="14" lengthAdjust="spacing" textLength="89" x="487" y="275.8059">ItemDatabase</text><rect fill="#FEFECE" filter="url(#fz7zq1lxgmji)" height="30.7999" style="stroke:#A80036;stroke-width:1.5;" width="60" x="601" y="49"/><rect fill="#FEFECE" filter="url(#fz7zq1lxgmji)" height="30.7999" style="stroke:#A80036;stroke-width:1.5;" width="60" x="597" y="53"/><text fill="#000000" font-family="sans-serif" font-size="14" lengthAdjust="spacing" textLength="46" x="604" y="73.0059">Display</text><rect fill="#FEFECE" filter="url(#fz7zq1lxgmji)" height="30.7999" style="stroke:#A80036;stroke-width:1.5;" width="60" x="601" y="255.8"/><rect fill="#FEFECE" filter="url(#fz7zq1lxgmji)" height="30.7999" style="stroke:#A80036;stroke-width:1.5;" width="60" x="597" y="259.8"/><text fill="#000000" font-family="sans-serif" font-size="14" lengthAdjust="spacing" textLength="46" x="604" y="279.8059">Display</text><polygon fill="#A80036" points="214,116.3999,224,120.3999,214,124.3999,218,120.3999" style="stroke:#A80036;stroke-width:1.0;"/><line style="stroke:#A80036;stroke-width:1.0;" x1="23" x2="220" y1="120.3999" y2="120.3999"/><text fill="#000000" font-family="sans-serif" font-size="13" lengthAdjust="spacing" textLength="179" x="30" y="114.8769">Create new item on /items/new</text><polygon fill="#A80036" points="390,146,400,150,390,154,394,150" style="stroke:#A80036;stroke-width:1.0;"/><line style="stroke:#A80036;stroke-width:1.0;" x1="226" x2="396" y1="150" y2="150"/><text fill="#000000" font-family="sans-serif" font-size="13" lengthAdjust="spacing" textLength="138" x="233" y="144.477">POST /api/items + data</text><polygon fill="#A80036" points="521.5,175.6,531.5,179.6,521.5,183.6,525.5,179.6" style="stroke:#A80036;stroke-width:1.0;"/><line style="stroke:#A80036;stroke-width:1.0;" x1="402" x2="527.5" y1="179.6" y2="179.6"/><text fill="#000000" font-family="sans-serif" font-size="13" lengthAdjust="spacing" textLength="88" x="409" y="174.077">Write item data</text><polygon fill="#A80036" points="619,205.2,629,209.2,619,213.2,623,209.2" style="stroke:#A80036;stroke-width:1.0;"/><line style="stroke:#A80036;stroke-width:1.0;stroke-dasharray:2.0,2.0;" x1="402" x2="625" y1="209.2" y2="209.2"/><text fill="#000000" font-family="sans-serif" font-size="13" lengthAdjust="spacing" textLength="149" x="409" y="203.677">&lt;&lt; Event ItemCreated &gt;&gt;</text><polygon fill="#A80036" points="237,234.8,227,238.8,237,242.8,233,238.8" style="stroke:#A80036;stroke-width:1.0;"/><line style="stroke:#A80036;stroke-width:1.0;stroke-dasharray:2.0,2.0;" x1="231" x2="401" y1="238.8" y2="238.8"/><text fill="#000000" font-family="sans-serif" font-size="13" lengthAdjust="spacing" textLength="152" x="243" y="233.277">201 OK Resource Created</text><!--MD5=[995197b4aaec00eca7e5fd5f1e4437b8]
@startuml [Sequence] Add Item


actor User as User
participant Client as Client

box "Item Domain"
participant NewItemController
participant ItemDatabase
end box

collections Display as Display

User -> Client: Create new item on /items/new
Client -> NewItemController: POST /api/items + data

NewItemController -> ItemDatabase: Write item data
NewItemController - - -> Display: << Event ItemCreated >>
NewItemController - -> Client: 201 OK Resource Created


@enduml

PlantUML version 1.2021.7(Sun May 23 19:40:07 WIB 2021)
(GPL source distribution)
Java Runtime: OpenJDK Runtime Environment
JVM: OpenJDK 64-Bit Server VM
Default Encoding: ANSI_X3.4-1968
Language: en
Country: US
--></g></svg>