<?xml version="1.0" encoding="UTF-8" standalone="no"?><svg xmlns="http://www.w3.org/2000/svg" xmlns:xlink="http://www.w3.org/1999/xlink" contentScriptType="application/ecmascript" contentStyleType="text/css" height="349px" preserveAspectRatio="none" style="width:819px;height:349px;background:#FFFFFF;" version="1.1" viewBox="0 0 819 349" width="819px" zoomAndPan="magnify"><defs><filter height="300%" id="f1dz84tmqsdva0" width="300%" x="-1" y="-1"><feGaussianBlur result="blurOut" stdDeviation="2.0"/><feColorMatrix in="blurOut" result="blurOut2" type="matrix" values="0 0 0 0 0 0 0 0 0 0 0 0 0 0 0 0 0 0 .4 0"/><feOffset dx="4.0" dy="4.0" in="blurOut2" result="blurOut3"/><feBlend in="SourceGraphic" in2="blurOut3" mode="normal"/></filter></defs><g><rect fill="#DDDDDD" height="337.5999" style="stroke:#A80036;stroke-width:1.0;" width="297" x="438" y="6"/><text fill="#000000" font-family="sans-serif" font-size="13" font-weight="bold" lengthAdjust="spacing" textLength="96" x="538.5" y="18.077">Review Domain</text><line style="stroke:#A80036;stroke-width:1.0;stroke-dasharray:5.0,5.0;" x1="23" x2="23" y1="88.7999" y2="256.8"/><line style="stroke:#A80036;stroke-width:1.0;stroke-dasharray:5.0,5.0;" x1="241" x2="241" y1="88.7999" y2="256.8"/><line style="stroke:#A80036;stroke-width:1.0;stroke-dasharray:5.0,5.0;" x1="519" x2="519" y1="88.7999" y2="256.8"/><line style="stroke:#A80036;stroke-width:1.0;stroke-dasharray:5.0,5.0;" x1="668" x2="668" y1="88.7999" y2="256.8"/><line style="stroke:#A80036;stroke-width:1.0;stroke-dasharray:5.0,5.0;" x1="775" x2="775" y1="88.7999" y2="256.8"/><text fill="#000000" font-family="sans-serif" font-size="14" lengthAdjust="spacing" textLength="30" x="5" y="85.0059">User</text><ellipse cx="23" cy="15" fill="#FEFECE" filter="url(#f1dz84tmqsdva0)" rx="8" ry="8" style="stroke:#A80036;stroke-width:2.0;"/><path d="M23,23 L23,50 M10,31 L36,31 M23,50 L10,65 M23,50 L36,65 " fill="none" filter="url(#f1dz84tmqsdva0)" style="stroke:#A80036;stroke-width:2.0;"/><text fill="#000000" font-family="sans-serif" font-size="14" lengthAdjust="spacing" textLength="30" x="5" y="268.8059">User</text><ellipse cx="23" cy="282.5999" fill="#FEFECE" filter="url(#f1dz84tmqsdva0)" rx="8" ry="8" style="stroke:#A80036;stroke-width:2.0;"/><path d="M23,290.5999 L23,317.5999 M10,298.5999 L36,298.5999 M23,317.5999 L10,332.5999 M23,317.5999 L36,332.5999 " fill="none" filter="url(#f1dz84tmqsdva0)" style="stroke:#A80036;stroke-width:2.0;"/><rect fill="#FEFECE" filter="url(#f1dz84tmqsdva0)" height="30.7999" style="stroke:#A80036;stroke-width:1.5;" width="50" x="214" y="53"/><text fill="#000000" font-family="sans-serif" font-size="14" lengthAdjust="spacing" textLength="36" x="221" y="73.0059">Client</text><rect fill="#FEFECE" filter="url(#f1dz84tmqsdva0)" height="30.7999" style="stroke:#A80036;stroke-width:1.5;" width="50" x="214" y="255.8"/><text fill="#000000" font-family="sans-serif" font-size="14" lengthAdjust="spacing" textLength="36" x="221" y="275.8059">Client</text><rect fill="#FEFECE" filter="url(#f1dz84tmqsdva0)" height="30.7999" style="stroke:#A80036;stroke-width:1.5;" width="150" x="442" y="53"/><text fill="#000000" font-family="sans-serif" font-size="14" lengthAdjust="spacing" textLength="136" x="449" y="73.0059">NewReviewController</text><rect fill="#FEFECE" filter="url(#f1dz84tmqsdva0)" height="30.7999" style="stroke:#A80036;stroke-width:1.5;" width="150" x="442" y="255.8"/><text fill="#000000" font-family="sans-serif" font-size="14" lengthAdjust="spacing" textLength="136" x="449" y="275.8059">NewReviewController</text><rect fill="#FEFECE" filter="url(#f1dz84tmqsdva0)" height="30.7999" style="stroke:#A80036;stroke-width:1.5;" width="121" x="606" y="53"/><text fill="#000000" font-family="sans-serif" font-size="14" lengthAdjust="spacing" textLength="107" x="613" y="73.0059">ReviewDatabase</text><rect fill="#FEFECE" filter="url(#f1dz84tmqsdva0)" height="30.7999" style="stroke:#A80036;stroke-width:1.5;" width="121" x="606" y="255.8"/><text fill="#000000" font-family="sans-serif" font-size="14" lengthAdjust="spacing" textLength="107" x="613" y="275.8059">ReviewDatabase</text><rect fill="#FEFECE" filter="url(#f1dz84tmqsdva0)" height="30.7999" style="stroke:#A80036;stroke-width:1.5;" width="60" x="745" y="49"/><rect fill="#FEFECE" filter="url(#f1dz84tmqsdva0)" height="30.7999" style="stroke:#A80036;stroke-width:1.5;" width="60" x="741" y="53"/><text fill="#000000" font-family="sans-serif" font-size="14" lengthAdjust="spacing" textLength="46" x="748" y="73.0059">Display</text><rect fill="#FEFECE" filter="url(#f1dz84tmqsdva0)" height="30.7999" style="stroke:#A80036;stroke-width:1.5;" width="60" x="745" y="255.8"/><rect fill="#FEFECE" filter="url(#f1dz84tmqsdva0)" height="30.7999" style="stroke:#A80036;stroke-width:1.5;" width="60" x="741" y="259.8"/><text fill="#000000" font-family="sans-serif" font-size="14" lengthAdjust="spacing" textLength="46" x="748" y="279.8059">Display</text><polygon fill="#A80036" points="229,116.3999,239,120.3999,229,124.3999,233,120.3999" style="stroke:#A80036;stroke-width:1.0;"/><line style="stroke:#A80036;stroke-width:1.0;" x1="23" x2="235" y1="120.3999" y2="120.3999"/><text fill="#000000" font-family="sans-serif" font-size="13" lengthAdjust="spacing" textLength="194" x="30" y="114.8769">Create new review on item's page</text><polygon fill="#A80036" points="507,146,517,150,507,154,511,150" style="stroke:#A80036;stroke-width:1.0;"/><line style="stroke:#A80036;stroke-width:1.0;" x1="241" x2="513" y1="150" y2="150"/><text fill="#000000" font-family="sans-serif" font-size="13" lengthAdjust="spacing" textLength="254" x="248" y="144.477">POST /api/items/{item.id}/comments + data</text><polygon fill="#A80036" points="656.5,175.6,666.5,179.6,656.5,183.6,660.5,179.6" style="stroke:#A80036;stroke-width:1.0;"/><line style="stroke:#A80036;stroke-width:1.0;" x1="519" x2="662.5" y1="179.6" y2="179.6"/><text fill="#000000" font-family="sans-serif" font-size="13" lengthAdjust="spacing" textLength="100" x="526" y="174.077">Write review data</text><polygon fill="#A80036" points="763,205.2,773,209.2,763,213.2,767,209.2" style="stroke:#A80036;stroke-width:1.0;"/><line style="stroke:#A80036;stroke-width:1.0;stroke-dasharray:2.0,2.0;" x1="519" x2="769" y1="209.2" y2="209.2"/><text fill="#000000" font-family="sans-serif" font-size="13" lengthAdjust="spacing" textLength="165" x="526" y="203.677">&lt;&lt; Event ReviewCreated &gt;&gt;</text><polygon fill="#A80036" points="252,234.8,242,238.8,252,242.8,248,238.8" style="stroke:#A80036;stroke-width:1.0;"/><line style="stroke:#A80036;stroke-width:1.0;stroke-dasharray:2.0,2.0;" x1="246" x2="518" y1="238.8" y2="238.8"/><text fill="#000000" font-family="sans-serif" font-size="13" lengthAdjust="spacing" textLength="152" x="258" y="233.277">201 OK Resource Created</text><!--MD5=[f4b9724fac3a316a875d3aa887f8dc78]
@startuml [Sequence] Add Review


actor User as User
participant Client as Client

box "Review Domain"
participant NewReviewController
participant ReviewDatabase
end box

collections Display as Display

User -> Client: Create new review on item's page
Client -> NewReviewController: POST /api/items/{item.id}/comments + data

NewReviewController -> ReviewDatabase: Write review data
NewReviewController - - -> Display: << Event ReviewCreated >>
NewReviewController - -> Client: 201 OK Resource Created


@enduml

PlantUML version 1.2021.7(Sun May 23 19:40:07 WIB 2021)
(GPL source distribution)
Java Runtime: OpenJDK Runtime Environment
JVM: OpenJDK 64-Bit Server VM
Default Encoding: ANSI_X3.4-1968
Language: en
Country: US
--></g></svg>