<?xml version="1.0" encoding="UTF-8" standalone="no"?><svg xmlns="http://www.w3.org/2000/svg" xmlns:xlink="http://www.w3.org/1999/xlink" contentScriptType="application/ecmascript" contentStyleType="text/css" height="631px" preserveAspectRatio="none" style="width:537px;height:631px;background:#FFFFFF;" version="1.1" viewBox="0 0 537 631" width="537px" zoomAndPan="magnify"><defs><filter height="300%" id="f17yydif36fxru" width="300%" x="-1" y="-1"><feGaussianBlur result="blurOut" stdDeviation="2.0"/><feColorMatrix in="blurOut" result="blurOut2" type="matrix" values="0 0 0 0 0 0 0 0 0 0 0 0 0 0 0 0 0 0 .4 0"/><feOffset dx="4.0" dy="4.0" in="blurOut2" result="blurOut3"/><feBlend in="SourceGraphic" in2="blurOut3" mode="normal"/></filter></defs><g><ellipse cx="89.5" cy="49.9778" fill="#000000" filter="url(#f17yydif36fxru)" rx="10" ry="10" style="stroke:none;stroke-width:1.0;"/><rect fill="#FEFECE" filter="url(#f17yydif36fxru)" height="34.4001" rx="12.5" ry="12.5" style="stroke:#A80036;stroke-width:1.5;" width="83" x="48" y="79.9778"/><text fill="#000000" font-family="sans-serif" font-size="12" lengthAdjust="spacing" textLength="63" x="58" y="101.1259">Issue Order</text><rect fill="#FEFECE" filter="url(#f17yydif36fxru)" height="34.4001" rx="12.5" ry="12.5" style="stroke:#A80036;stroke-width:1.5;" width="95" x="42" y="264.778"/><text fill="#000000" font-family="sans-serif" font-size="12" lengthAdjust="spacing" textLength="75" x="52" y="285.9261">Pay the Order</text><polygon fill="#FEFECE" filter="url(#f17yydif36fxru)" points="42,427.9783,137,427.9783,149,439.9783,137,451.9783,42,451.9783,30,439.9783,42,427.9783" style="stroke:#A80036;stroke-width:1.5;"/><text fill="#000000" font-family="sans-serif" font-size="11" lengthAdjust="spacing" textLength="103" x="93.5" y="462.1973">Completion Accepted</text><text fill="#000000" font-family="sans-serif" font-size="11" lengthAdjust="spacing" textLength="95" x="42" y="443.5973">Confirm Completion</text><text fill="#000000" font-family="sans-serif" font-size="11" lengthAdjust="spacing" textLength="100" x="149" y="436.9974">Completion Rejected</text><rect fill="#FEFECE" filter="url(#f17yydif36fxru)" height="34.4001" rx="12.5" ry="12.5" style="stroke:#A80036;stroke-width:1.5;" width="114" x="32.5" y="483.6973"/><text fill="#000000" font-family="sans-serif" font-size="12" lengthAdjust="spacing" textLength="94" x="42.5" y="504.8453">Order Completed</text><line style="stroke:#000000;stroke-width:2.0;" x1="15" x2="15" y1="13.378" y2="614.4975"/><polygon fill="#FEFECE" filter="url(#f17yydif36fxru)" points="351,134.3779,421,134.3779,433,146.3779,421,158.3779,351,158.3779,339,146.3779,351,134.3779" style="stroke:#A80036;stroke-width:1.5;"/><text fill="#000000" font-family="sans-serif" font-size="11" lengthAdjust="spacing" textLength="70" x="351" y="149.9969">Confirm Order</text><text fill="#000000" font-family="sans-serif" font-size="11" lengthAdjust="spacing" textLength="78" x="261" y="143.397">Order Accepted</text><text fill="#000000" font-family="sans-serif" font-size="11" lengthAdjust="spacing" textLength="75" x="433" y="143.397">Order Rejected</text><rect fill="#FEFECE" filter="url(#f17yydif36fxru)" height="34.4001" rx="12.5" ry="12.5" style="stroke:#A80036;stroke-width:1.5;" width="118" x="260" y="168.3779"/><text fill="#000000" font-family="sans-serif" font-size="12" lengthAdjust="spacing" textLength="98" x="270" y="189.526">Awaiting Payment</text><rect fill="#FEFECE" filter="url(#f17yydif36fxru)" height="34.4001" rx="12.5" ry="12.5" style="stroke:#A80036;stroke-width:1.5;" width="110" x="398" y="168.3779"/><text fill="#000000" font-family="sans-serif" font-size="12" lengthAdjust="spacing" textLength="90" x="408" y="189.526">Order Cancelled</text><ellipse cx="453" cy="233.778" fill="#FFFFFF" filter="url(#f17yydif36fxru)" rx="11" ry="11" style="stroke:#000000;stroke-width:1.0;"/><ellipse cx="453" cy="233.778" fill="#000000" rx="6" ry="6" style="stroke:#7F7F7F;stroke-width:1.0;"/><rect fill="#FEFECE" filter="url(#f17yydif36fxru)" height="34.4001" rx="12.5" ry="12.5" style="stroke:#A80036;stroke-width:1.5;" width="115" x="328.5" y="373.5782"/><text fill="#000000" font-family="sans-serif" font-size="12" lengthAdjust="spacing" textLength="95" x="338.5" y="394.7263">Issue Completion</text><rect fill="#FEFECE" filter="url(#f17yydif36fxru)" height="34.4001" rx="12.5" ry="12.5" style="stroke:#A80036;stroke-width:1.5;" width="98" x="337" y="319.1781"/><text fill="#000000" font-family="sans-serif" font-size="12" lengthAdjust="spacing" textLength="78" x="347" y="340.3262">Process Order</text><rect fill="#FEFECE" filter="url(#f17yydif36fxru)" height="34.4001" rx="12.5" ry="12.5" style="stroke:#A80036;stroke-width:1.5;" width="116" x="328" y="538.0974"/><text fill="#000000" font-family="sans-serif" font-size="12" lengthAdjust="spacing" textLength="96" x="338" y="559.2454">Receive Payment</text><ellipse cx="386" cy="603.4975" fill="#FFFFFF" filter="url(#f17yydif36fxru)" rx="11" ry="11" style="stroke:#000000;stroke-width:1.0;"/><ellipse cx="386" cy="603.4975" fill="#000000" rx="6" ry="6" style="stroke:#7F7F7F;stroke-width:1.0;"/><line style="stroke:#000000;stroke-width:2.0;" x1="254" x2="254" y1="13.378" y2="614.4975"/><line style="stroke:#000000;stroke-width:2.0;" x1="518" x2="518" y1="13.378" y2="614.4975"/><line style="stroke:#A80036;stroke-width:1.5;" x1="89.5" x2="89.5" y1="59.9778" y2="79.9778"/><polygon fill="#A80036" points="85.5,69.9778,89.5,79.9778,93.5,69.9778,89.5,73.9778" style="stroke:#A80036;stroke-width:1.0;"/><line style="stroke:#A80036;stroke-width:1.5;" x1="89.5" x2="89.5" y1="451.9783" y2="483.6973"/><polygon fill="#A80036" points="85.5,473.6973,89.5,483.6973,93.5,473.6973,89.5,477.6973" style="stroke:#A80036;stroke-width:1.0;"/><line style="stroke:#A80036;stroke-width:1.5;" x1="453" x2="453" y1="202.778" y2="222.778"/><polygon fill="#A80036" points="449,212.778,453,222.778,457,212.778,453,216.778" style="stroke:#A80036;stroke-width:1.0;"/><line style="stroke:#A80036;stroke-width:1.5;" x1="339" x2="319" y1="146.3779" y2="146.3779"/><line style="stroke:#A80036;stroke-width:1.5;" x1="319" x2="319" y1="146.3779" y2="168.3779"/><polygon fill="#A80036" points="315,158.3779,319,168.3779,323,158.3779,319,162.3779" style="stroke:#A80036;stroke-width:1.0;"/><line style="stroke:#A80036;stroke-width:1.5;" x1="433" x2="453" y1="146.3779" y2="146.3779"/><line style="stroke:#A80036;stroke-width:1.5;" x1="453" x2="453" y1="146.3779" y2="168.3779"/><polygon fill="#A80036" points="449,158.3779,453,168.3779,457,158.3779,453,162.3779" style="stroke:#A80036;stroke-width:1.0;"/><line style="stroke:#A80036;stroke-width:1.5;" x1="319" x2="319" y1="202.778" y2="249.778"/><line style="stroke:#A80036;stroke-width:1.5;" x1="319" x2="89.5" y1="249.778" y2="249.778"/><line style="stroke:#A80036;stroke-width:1.5;" x1="89.5" x2="89.5" y1="249.778" y2="264.778"/><polygon fill="#A80036" points="85.5,254.778,89.5,264.778,93.5,254.778,89.5,258.778" style="stroke:#A80036;stroke-width:1.0;"/><line style="stroke:#A80036;stroke-width:1.5;" x1="386" x2="386" y1="353.5782" y2="373.5782"/><polygon fill="#A80036" points="382,363.5782,386,373.5782,390,363.5782,386,367.5782" style="stroke:#A80036;stroke-width:1.0;"/><line style="stroke:#A80036;stroke-width:1.5;" x1="386" x2="386" y1="572.4975" y2="592.4975"/><polygon fill="#A80036" points="382,582.4975,386,592.4975,390,582.4975,386,586.4975" style="stroke:#A80036;stroke-width:1.0;"/><line style="stroke:#A80036;stroke-width:1.5;" x1="89.5" x2="89.5" y1="114.3779" y2="119.3779"/><line style="stroke:#A80036;stroke-width:1.5;" x1="89.5" x2="386" y1="119.3779" y2="119.3779"/><line style="stroke:#A80036;stroke-width:1.5;" x1="386" x2="386" y1="119.3779" y2="134.3779"/><polygon fill="#A80036" points="382,124.3779,386,134.3779,390,124.3779,386,128.3779" style="stroke:#A80036;stroke-width:1.0;"/><line style="stroke:#A80036;stroke-width:1.5;" x1="149" x2="159" y1="439.9783" y2="439.9783"/><polygon fill="#A80036" points="155,398.1783,159,388.1783,163,398.1783,159,394.1783" style="stroke:#A80036;stroke-width:1.5;"/><line style="stroke:#A80036;stroke-width:1.5;" x1="159" x2="159" y1="336.3782" y2="439.9783"/><line style="stroke:#A80036;stroke-width:1.5;" x1="159" x2="337" y1="336.3782" y2="336.3782"/><polygon fill="#A80036" points="327,332.3782,337,336.3782,327,340.3782,331,336.3782" style="stroke:#A80036;stroke-width:1.0;"/><line style="stroke:#A80036;stroke-width:1.5;" x1="386" x2="386" y1="407.9783" y2="412.9783"/><line style="stroke:#A80036;stroke-width:1.5;" x1="386" x2="89.5" y1="412.9783" y2="412.9783"/><line style="stroke:#A80036;stroke-width:1.5;" x1="89.5" x2="89.5" y1="412.9783" y2="427.9783"/><polygon fill="#A80036" points="85.5,417.9783,89.5,427.9783,93.5,417.9783,89.5,421.9783" style="stroke:#A80036;stroke-width:1.0;"/><line style="stroke:#A80036;stroke-width:1.5;" x1="89.5" x2="89.5" y1="299.1781" y2="304.1781"/><line style="stroke:#A80036;stroke-width:1.5;" x1="89.5" x2="386" y1="304.1781" y2="304.1781"/><line style="stroke:#A80036;stroke-width:1.5;" x1="386" x2="386" y1="304.1781" y2="319.1781"/><polygon fill="#A80036" points="382,309.1781,386,319.1781,390,309.1781,386,313.1781" style="stroke:#A80036;stroke-width:1.0;"/><line style="stroke:#A80036;stroke-width:1.5;" x1="89.5" x2="89.5" y1="518.0974" y2="523.0974"/><line style="stroke:#A80036;stroke-width:1.5;" x1="89.5" x2="386" y1="523.0974" y2="523.0974"/><line style="stroke:#A80036;stroke-width:1.5;" x1="386" x2="386" y1="523.0974" y2="538.0974"/><polygon fill="#A80036" points="382,528.0974,386,538.0974,390,528.0974,386,532.0974" style="stroke:#A80036;stroke-width:1.0;"/><text fill="#000000" font-family="sans-serif" font-size="18" lengthAdjust="spacing" textLength="78" x="95.5" y="30.0999">Customer</text><text fill="#000000" font-family="sans-serif" font-size="18" lengthAdjust="spacing" textLength="67" x="352.5" y="30.0999">Provider</text><!--MD5=[7905a5b21c5dc5384a4509b38d6ab1a4]
@startuml [Activity] Order Flow

|Customer|
start
:Issue Order;

|Provider|
if (Confirm Order) then (Order Accepted)
    :Awaiting Payment;
else (Order Rejected)
    :Order Cancelled;
    stop
endif

|Customer|
:Pay the Order;

|Provider|
repeat :Process Order;
:Issue Completion;

|Customer|
repeat while (Confirm Completion) is (Completion Rejected) not (Completion Accepted)
:Order Completed;

|Provider|
:Receive Payment;

stop
@enduml

PlantUML version 1.2021.7(Sun May 23 19:40:07 WIB 2021)
(GPL source distribution)
Java Runtime: OpenJDK Runtime Environment
JVM: OpenJDK 64-Bit Server VM
Default Encoding: ANSI_X3.4-1968
Language: en
Country: US
--></g></svg>