<?xml version="1.0" encoding="UTF-8" standalone="no"?><svg xmlns="http://www.w3.org/2000/svg" xmlns:xlink="http://www.w3.org/1999/xlink" contentScriptType="application/ecmascript" contentStyleType="text/css" height="63px" preserveAspectRatio="none" style="width:208px;height:63px;background:#FFFFFF;" version="1.1" viewBox="0 0 208 63" width="208px" zoomAndPan="magnify"><defs/><g><rect fill="#FEFECE" height="20.7999" rx="5" ry="5" style="stroke:#FEFECE;stroke-width:1.5;" width="60" x="10" y="20.5"/><text fill="#000000" font-family="sans-serif" font-size="14" lengthAdjust="spacing" textLength="28" x="15" y="35.5059">data</text><text fill="#000000" font-family="sans-serif" font-size="14" lengthAdjust="spacing" textLength="0" x="65" y="35.5059"/><line style="stroke:#A80036;stroke-width:1.0;" x1="48" x2="48" y1="20.5" y2="41.2999"/><rect fill="none" height="20.7999" rx="5" ry="5" style="stroke:#A80036;stroke-width:1.5;" width="60" x="10" y="20.5"/><rect fill="#FEFECE" height="41.5999" rx="5" ry="5" style="stroke:#FEFECE;stroke-width:1.5;" width="89" x="107" y="10"/><text fill="#000000" font-family="sans-serif" font-size="14" lengthAdjust="spacing" textLength="11" x="112" y="25.0059">id</text><text fill="#000000" font-family="sans-serif" font-size="14" lengthAdjust="spacing" textLength="35" x="156" y="25.0059">string</text><line style="stroke:#A80036;stroke-width:1.0;" x1="151" x2="151" y1="10" y2="30.7999"/><line style="stroke:#A80036;stroke-width:1.0;" x1="107" x2="196" y1="30.7999" y2="30.7999"/><text fill="#000000" font-family="sans-serif" font-size="14" lengthAdjust="spacing" textLength="34" x="112" y="45.8059">email</text><text fill="#000000" font-family="sans-serif" font-size="14" lengthAdjust="spacing" textLength="35" x="156" y="45.8059">string</text><line style="stroke:#A80036;stroke-width:1.0;" x1="151" x2="151" y1="30.7999" y2="51.5999"/><rect fill="none" height="41.5999" rx="5" ry="5" style="stroke:#A80036;stroke-width:1.5;" width="89" x="107" y="10"/><path d="M58,31 L71,31 C80.3153,31 90.2408,31 99.8173,31 " fill="none" style="stroke:#A80036;stroke-width:1.0;stroke-dasharray:3.0,3.0;"/><path d="M99.8173,34.0348 L102.0934,31 L99.8173,27.9652 L107.4043,31 L99.8173,34.0348 " fill="#A80036" style="stroke:#A80036;stroke-width:1.0;"/><ellipse cx="58" cy="31" fill="#A80036" rx="3" ry="3" style="stroke:#A80036;stroke-width:1.0;stroke-dasharray:3.0,3.0;"/><!--MD5=[4ca3aee5779690509406cdd81be1ec0c]
@startjson UserCreatedEvent
{
    "data" : {
        "id": "string",
        "email": "string"
    }
}
@endjson

PlantUML version 1.2021.7(Sun May 23 19:40:07 WIB 2021)
(GPL source distribution)
Java Runtime: OpenJDK Runtime Environment
JVM: OpenJDK 64-Bit Server VM
Default Encoding: ANSI_X3.4-1968
Language: en
Country: US
--></g></svg>