<?xml version="1.0" encoding="UTF-8" standalone="no"?><svg xmlns="http://www.w3.org/2000/svg" xmlns:xlink="http://www.w3.org/1999/xlink" contentScriptType="application/ecmascript" contentStyleType="text/css" height="290px" preserveAspectRatio="none" style="width:465px;height:290px;background:#FFFFFF;" version="1.1" viewBox="0 0 465 290" width="465px" zoomAndPan="magnify"><defs><filter height="300%" id="f1flv582b4od0b" width="300%" x="-1" y="-1"><feGaussianBlur result="blurOut" stdDeviation="2.0"/><feColorMatrix in="blurOut" result="blurOut2" type="matrix" values="0 0 0 0 0 0 0 0 0 0 0 0 0 0 0 0 0 0 .4 0"/><feOffset dx="4.0" dy="4.0" in="blurOut2" result="blurOut3"/><feBlend in="SourceGraphic" in2="blurOut3" mode="normal"/></filter></defs><g><rect fill="#DDDDDD" height="278.3999" style="stroke:#A80036;stroke-width:1.0;" width="139" x="320.5" y="6"/><text fill="#000000" font-family="sans-serif" font-size="13" font-weight="bold" lengthAdjust="spacing" textLength="81" x="349.5" y="18.077">Auth Domain</text><line style="stroke:#A80036;stroke-width:1.0;stroke-dasharray:5.0,5.0;" x1="23" x2="23" y1="88.7999" y2="197.6"/><line style="stroke:#A80036;stroke-width:1.0;stroke-dasharray:5.0,5.0;" x1="168" x2="168" y1="88.7999" y2="197.6"/><line style="stroke:#A80036;stroke-width:1.0;stroke-dasharray:5.0,5.0;" x1="389.5" x2="389.5" y1="88.7999" y2="197.6"/><text fill="#000000" font-family="sans-serif" font-size="14" lengthAdjust="spacing" textLength="30" x="5" y="85.0059">User</text><ellipse cx="23" cy="15" fill="#FEFECE" filter="url(#f1flv582b4od0b)" rx="8" ry="8" style="stroke:#A80036;stroke-width:2.0;"/><path d="M23,23 L23,50 M10,31 L36,31 M23,50 L10,65 M23,50 L36,65 " fill="none" filter="url(#f1flv582b4od0b)" style="stroke:#A80036;stroke-width:2.0;"/><text fill="#000000" font-family="sans-serif" font-size="14" lengthAdjust="spacing" textLength="30" x="5" y="209.6059">User</text><ellipse cx="23" cy="223.3999" fill="#FEFECE" filter="url(#f1flv582b4od0b)" rx="8" ry="8" style="stroke:#A80036;stroke-width:2.0;"/><path d="M23,231.3999 L23,258.3999 M10,239.3999 L36,239.3999 M23,258.3999 L10,273.3999 M23,258.3999 L36,273.3999 " fill="none" filter="url(#f1flv582b4od0b)" style="stroke:#A80036;stroke-width:2.0;"/><rect fill="#FEFECE" filter="url(#f1flv582b4od0b)" height="30.7999" style="stroke:#A80036;stroke-width:1.5;" width="50" x="141" y="53"/><text fill="#000000" font-family="sans-serif" font-size="14" lengthAdjust="spacing" textLength="36" x="148" y="73.0059">Client</text><rect fill="#FEFECE" filter="url(#f1flv582b4od0b)" height="30.7999" style="stroke:#A80036;stroke-width:1.5;" width="50" x="141" y="196.6"/><text fill="#000000" font-family="sans-serif" font-size="14" lengthAdjust="spacing" textLength="36" x="148" y="216.6059">Client</text><rect fill="#FEFECE" filter="url(#f1flv582b4od0b)" height="30.7999" style="stroke:#A80036;stroke-width:1.5;" width="127" x="324.5" y="53"/><text fill="#000000" font-family="sans-serif" font-size="14" lengthAdjust="spacing" textLength="113" x="331.5" y="73.0059">SignOutController</text><rect fill="#FEFECE" filter="url(#f1flv582b4od0b)" height="30.7999" style="stroke:#A80036;stroke-width:1.5;" width="127" x="324.5" y="196.6"/><text fill="#000000" font-family="sans-serif" font-size="14" lengthAdjust="spacing" textLength="113" x="331.5" y="216.6059">SignOutController</text><polygon fill="#A80036" points="156,116.3999,166,120.3999,156,124.3999,160,120.3999" style="stroke:#A80036;stroke-width:1.0;"/><line style="stroke:#A80036;stroke-width:1.0;" x1="23" x2="162" y1="120.3999" y2="120.3999"/><text fill="#000000" font-family="sans-serif" font-size="13" lengthAdjust="spacing" textLength="121" x="30" y="114.8769">Request from /logout</text><polygon fill="#A80036" points="378,146,388,150,378,154,382,150" style="stroke:#A80036;stroke-width:1.0;"/><line style="stroke:#A80036;stroke-width:1.0;" x1="168" x2="384" y1="150" y2="150"/><text fill="#000000" font-family="sans-serif" font-size="13" lengthAdjust="spacing" textLength="136" x="175" y="144.477">POST /api/auth/signout</text><polygon fill="#A80036" points="179,175.6,169,179.6,179,183.6,175,179.6" style="stroke:#A80036;stroke-width:1.0;"/><line style="stroke:#A80036;stroke-width:1.0;stroke-dasharray:2.0,2.0;" x1="173" x2="389" y1="179.6" y2="179.6"/><text fill="#000000" font-family="sans-serif" font-size="13" lengthAdjust="spacing" textLength="198" x="185" y="174.077">200 OK Clear out existing cookies</text><!--MD5=[ad3b37164b2dfa507f527c4020818c6b]
@startuml [Sequence] Sign Out


actor User as User

User -> Client: Request from /logout
Client -> SignOutController: POST /api/auth/signout
SignOutController - -> Client: 200 OK Clear out existing cookies

box "Auth Domain"
participant SignOutController
end box

@enduml

PlantUML version 1.2021.7(Sun May 23 19:40:07 WIB 2021)
(GPL source distribution)
Java Runtime: OpenJDK Runtime Environment
JVM: OpenJDK 64-Bit Server VM
Default Encoding: ANSI_X3.4-1968
Language: en
Country: US
--></g></svg>